<?xml version="1.0" encoding="UTF-8" standalone="no"?>
<svg
   xmlns:dc="http://purl.org/dc/elements/1.1/"
   xmlns:cc="http://creativecommons.org/ns#"
   xmlns:rdf="http://www.w3.org/1999/02/22-rdf-syntax-ns#"
   xmlns:svg="http://www.w3.org/2000/svg"
   xmlns="http://www.w3.org/2000/svg"
   width="64.071236mm"
   height="19.790771mm"
   viewBox="0 0 64.071236 19.790771"
   version="1.1"
   id="svg8">
  <defs
     id="defs2">
    <rect
       x="146.00563"
       y="62.973343"
       width="86.743355"
       height="35.413506"
       id="rect924" />
    <rect
       x="150.67947"
       y="62.670135"
       width="92.309532"
       height="33.600899"
       id="rect882" />
    <rect
       x="107.81628"
       y="52.334984"
       width="53.562275"
       height="18.529865"
       id="rect18" />
    <rect
       x="57.11879"
       y="32.935932"
       width="88.59585"
       height="31.033107"
       id="rect12" />
  </defs>
  <metadata
     id="metadata5">
    <rdf:RDF>
      <cc:Work
         rdf:about="">
        <dc:format>image/svg+xml</dc:format>
        <dc:type
           rdf:resource="http://purl.org/dc/dcmitype/StillImage" />
        <dc:title></dc:title>
      </cc:Work>
    </rdf:RDF>
  </metadata>
  <g
     id="layer1"
     transform="translate(-69.678917,-34.619281)">
    <g
       aria-label="LIME LIGHT
CINEMAS"
       id="text10"
       style="font-style:normal;font-weight:normal;font-size:10.5833px;line-height:0;font-family:sans-serif;white-space:pre;shape-inside:url(#rect12);fill:#000000;fill-opacity:1;stroke:none">
      <path
         d="m 69.757102,34.725114 h 1.375829 v 6.244147 h 3.873487 v 1.164163 h -5.249316 z"
         style="fill:#49b171;fill-opacity:1"
         id="path964" />
      <path
         d="M 76.361071,34.725114 H 77.7369 v 7.40831 h -1.375829 z"
         style="fill:#49b171;fill-opacity:1"
         id="path966" />
      <path
         d="m 86.80677,42.133424 -0.01058,-4.910651 -2.434159,4.063987 h -0.613831 l -2.434159,-4.000487 v 4.847151 h -1.312329 v -7.40831 h 1.132413 l 2.942157,4.910651 2.889241,-4.910651 h 1.132413 l 0.01058,7.40831 z"
         style="fill:#49b171;fill-opacity:1"
         id="path968" />
      <path
         d="m 95.929574,40.979844 v 1.15358 h -5.556233 v -7.40831 h 5.408066 v 1.15358 H 91.74917 v 1.92616 h 3.577156 v 1.132413 H 91.74917 v 2.042577 z"
         style="fill:#49b171;fill-opacity:1"
         id="path970" />
      <path
         d="m 100.91428,34.725114 h 1.37583 v 6.244147 h 3.87349 v 1.164163 h -5.24932 z"
         style="fill:#d6d6d6;fill-opacity:1"
         id="path972" />
      <path
         d="m 107.51825,34.725114 h 1.37583 v 7.40831 h -1.37583 z"
         style="fill:#d6d6d6;fill-opacity:1"
         id="path974" />
      <path
         d="m 116.21771,38.344603 h 1.30174 v 2.95274 q -0.5715,0.455082 -1.33349,0.698498 -0.762,0.243416 -1.56633,0.243416 -1.13242,0 -2.04258,-0.486832 -0.91016,-0.497415 -1.42874,-1.365246 -0.51859,-0.86783 -0.51859,-1.95791 0,-1.09008 0.51859,-1.95791 0.51858,-0.867831 1.42874,-1.354663 0.92075,-0.497415 2.06374,-0.497415 0.93133,0 1.69333,0.306916 0.762,0.306916 1.28058,0.89958 l -0.86783,0.846664 q -0.84666,-0.846664 -2.04258,-0.846664 -0.78316,0 -1.39699,0.328083 -0.60325,0.328082 -0.9525,0.920747 -0.33866,0.592664 -0.33866,1.354662 0,0.740831 0.33866,1.333496 0.34925,0.592665 0.9525,0.93133 0.61383,0.338666 1.38641,0.338666 0.86783,0 1.524,-0.380999 z"
         style="fill:#d6d6d6;fill-opacity:1"
         id="path976" />
      <path
         d="m 126.17658,34.725114 v 7.40831 h -1.37582 v -3.17499 h -3.83116 v 3.17499 h -1.37583 v -7.40831 h 1.37583 v 3.058574 h 3.83116 v -3.058574 z"
         style="fill:#d6d6d6;fill-opacity:1"
         id="path978" />
      <path
         d="m 129.93365,35.889277 h -2.45533 v -1.164163 h 6.28648 v 1.164163 h -2.45532 v 6.244147 h -1.37583 z"
         style="fill:#d6d6d6;fill-opacity:1"
         id="path980" />
      <path
         d="m 73.651719,54.410052 q -1.121829,0 -2.031993,-0.486831 -0.899581,-0.497416 -1.418162,-1.365246 -0.507999,-0.867831 -0.507999,-1.957911 0,-1.090079 0.518582,-1.95791 0.518582,-0.867831 1.418162,-1.354662 0.910164,-0.497415 2.031994,-0.497415 0.910164,0 1.661578,0.317499 0.751414,0.317499 1.269996,0.920747 l -0.888997,0.83608 q -0.804331,-0.86783 -1.979077,-0.86783 -0.761998,0 -1.365246,0.338665 -0.603248,0.328083 -0.941914,0.920747 -0.338665,0.592665 -0.338665,1.344079 0,0.751415 0.338665,1.344079 0.338666,0.592665 0.941914,0.931331 0.603248,0.328082 1.365246,0.328082 1.174746,0 1.979077,-0.878414 l 0.888997,0.846664 q -0.518582,0.603248 -1.28058,0.920747 -0.751414,0.317499 -1.661578,0.317499 z"
         style="line-height:1.15;text-align:center;letter-spacing:2.159px;text-anchor:middle;fill:#1a1a1a;fill-opacity:1"
         id="path982" />
      <path
         d="m 80.075782,46.89591 h 1.375828 v 7.408309 h -1.375828 z"
         style="line-height:1.15;text-align:center;letter-spacing:2.159px;text-anchor:middle;fill:#1a1a1a;fill-opacity:1"
         id="path984" />
      <path
         d="m 92.193649,46.89591 v 7.408309 h -1.132413 l -4.085154,-5.016484 v 5.016484 H 85.610837 V 46.89591 h 1.132413 l 4.085153,5.016484 V 46.89591 Z"
         style="line-height:1.15;text-align:center;letter-spacing:2.159px;text-anchor:middle;fill:#1a1a1a;fill-opacity:1"
         id="path986" />
      <path
         d="m 101.89854,53.15064 v 1.153579 H 96.342304 V 46.89591 h 5.408066 v 1.153579 h -4.032237 v 1.926161 h 3.577157 v 1.132413 h -3.577157 v 2.042577 z"
         style="line-height:1.15;text-align:center;letter-spacing:2.159px;text-anchor:middle;fill:#1a1a1a;fill-opacity:1"
         id="path988" />
      <path
         d="m 112.39716,54.304219 -0.0106,-4.910651 -2.43415,4.063987 h -0.61384 l -2.43415,-4.000487 v 4.847151 H 105.5921 V 46.89591 h 1.13241 l 2.94216,4.910651 2.88924,-4.910651 h 1.13241 l 0.0106,7.408309 z"
         style="line-height:1.15;text-align:center;letter-spacing:2.159px;text-anchor:middle;fill:#1a1a1a;fill-opacity:1"
         id="path990" />
      <path
         d="m 122.66296,52.589725 h -3.70415 l -0.73025,1.714494 h -1.41816 l 3.33374,-7.408309 h 1.35466 l 3.34432,7.408309 h -1.43933 z m -0.45508,-1.079497 -1.39699,-3.238489 -1.38642,3.238489 z"
         style="line-height:1.15;text-align:center;letter-spacing:2.159px;text-anchor:middle;fill:#1a1a1a;fill-opacity:1"
         id="path992" />
      <path
         d="m 130.2406,54.410052 q -0.85725,0 -1.66158,-0.243416 -0.79375,-0.243415 -1.25941,-0.645581 l 0.47624,-1.068913 q 0.45509,0.359832 1.11125,0.592665 0.66675,0.222249 1.3335,0.222249 0.82549,0 1.22766,-0.264583 0.41275,-0.264582 0.41275,-0.698497 0,-0.317499 -0.23283,-0.518582 -0.22225,-0.211666 -0.5715,-0.328082 -0.34925,-0.116417 -0.9525,-0.264583 -0.84666,-0.201082 -1.37583,-0.402165 -0.51858,-0.201083 -0.89958,-0.624415 -0.37041,-0.433915 -0.37041,-1.164163 0,-0.613831 0.32808,-1.111246 0.33866,-0.507999 1.00541,-0.804331 0.67733,-0.296332 1.651,-0.296332 0.67733,0 1.33349,0.169332 0.65617,0.169333 1.13242,0.486832 l -0.43392,1.068913 q -0.48683,-0.285749 -1.016,-0.433915 -0.52916,-0.148166 -1.02658,-0.148166 -0.81491,0 -1.21708,0.275166 -0.39158,0.275166 -0.39158,0.730247 0,0.317499 0.22225,0.518582 0.23283,0.201083 0.58208,0.317499 0.34925,0.116416 0.9525,0.264583 0.8255,0.190499 1.35466,0.402165 0.52917,0.201083 0.89958,0.624415 0.381,0.423332 0.381,1.142996 0,0.613831 -0.33866,1.111246 -0.32809,0.497416 -1.00542,0.793748 -0.67733,0.296332 -1.65099,0.296332 z"
         style="line-height:1.15;text-align:center;letter-spacing:2.159px;text-anchor:middle;fill:#1a1a1a;fill-opacity:1"
         id="path994" />
    </g>
    <text
       xml:space="preserve"
       id="text16"
       style="font-style:normal;font-weight:normal;font-size:10.5833px;line-height:1.25;font-family:sans-serif;white-space:pre;shape-inside:url(#rect18);fill:#000000;fill-opacity:1;stroke:none;" />
    <text
       xml:space="preserve"
       id="text880"
       style="font-style:normal;font-weight:normal;font-size:10.5833px;line-height:1.25;font-family:sans-serif;white-space:pre;shape-inside:url(#rect882);fill:#000000;fill-opacity:1;stroke:none;" />
    <text
       xml:space="preserve"
       id="text922"
       style="font-style:normal;font-weight:normal;font-size:10.5833px;line-height:1.25;font-family:sans-serif;white-space:pre;shape-inside:url(#rect924);fill:#000000;fill-opacity:1;stroke:none;" />
  </g>
</svg>
